# AST/ASF file generated using VICON BodyLanguage
# -----------------------------------------------
:version 1.10
:name VICON
:units
  mass 1.0
  length 0.45
  angle deg
:documentation
   .ast/.asf automatically generated from VICON data using
   VICON BodyBuilder and BodyLanguage model FoxedUp or BRILLIANT.MOD
:root
   order TX TY TZ RX RY RZ
   axis XYZ
   position 0 0 0  
   orientation 0 0 0 
:bonedata
  begin
     id 1 
     name lhipjoint
     direction 0.660183 -0.676772 0.325788 
     length 2.75133 
     axis 0 0 0  XYZ
  end
  begin
     id 2 
     name lfemur
     direction 0.34202 -0.939693 0  
     length 7.70317  
     axis 0 0 20  XYZ
    dof rx ry rz
    limits (-160.0 20.0)
           (-70.0 70.0)
           (-60.0 70.0)
  end
  begin
     id 3 
     name ltibia
     direction 0.342105 -0.939662 0   
     length 7.18701   
     axis 0 0 20   XYZ
    dof rx
    limits (-10.0 170.0)
  end
  begin
     id 4 
     name lfoot
     direction 0.14163 -0.389126 0.910232   
     length 2.41719   
     axis -90 7.62852e-016 20   XYZ
    dof rx rz
    limits (-45.0 90.0)
           (-70.0 20.0)
  end
  begin
     id 5 
     name ltoes
     direction 1.53533e-011 -4.21926e-011 1   
     length 1.18611   
     axis -90 7.62852e-016 20   XYZ
    dof rx
    limits (-90.0 20.0)
  end
  begin
     id 6 
     name rhipjoint
     direction -0.6658 -0.67229 0.323631   
     length 2.76968  
     axis 0 0 0  XYZ 
  end
  begin
     id 7 
     name rfemur
     direction -0.34202 -0.939693 0   
     length 7.92547   
     axis 0 0 -20   XYZ
    dof rx ry rz
    limits (-160.0 20.0)
           (-70.0 70.0)
           (-70.0 60.0)
  end
  begin
     id 8 
     name rtibia
     direction -0.342022 -0.939692 0   
     length 7.22641   
     axis 0 0 -20   XYZ
    dof rx
    limits (-10.0 170.0)
 end
 begin
     id 9 
     name rfoot
     direction -0.105675 -0.29034 0.951071   
     length 2.48149  
     axis -90 -7.62852e-016 -20   XYZ
    dof rx rz
    limits (-45.0 90.0)
           (-20.0 70.0)
  end
  begin
     id 10 
     name rtoes
     direction -1.5349e-011 -4.21859e-011 1   
     length 1.23343   
     axis -90 -7.62852e-016 -20   XYZ
    dof rx
    limits (-90.0 20.0)
  end
  begin
     id 11 
     name lowerback
     direction 0.0104173 0.993624 -0.112266   
     length 2.00527   
     axis 0 0 0   XYZ
    dof rx ry rz
    limits (-20.0 45.0)
           (-30.0 30.0)
           (-30.0 30.0)
  end
  begin
     id 12 
     name upperback
     direction 0.00733149 0.999856 -0.0152913   
     length 2.01385   
     axis 0 0 0   XYZ
    dof rx ry rz
    limits (-20.0 45.0)
           (-30.0 30.0)
           (-30.0 30.0)
  end
  begin
     id 13 
     name thorax
     direction 0.0026304 0.999318 0.036841   
     length 2.03734   
     axis 0 0 0   XYZ
    dof rx ry rz
    limits (-20.0 45.0)
           (-30.0 30.0)
           (-30.0 30.0)
  end
  begin
     id 14 
     name lowerneck
     direction 0.0293154 0.998757 0.0403082   
     length 1.65303   
     axis 0 0 0   XYZ
    dof rx ry rz
    limits (-20.0 45.0)
           (-30.0 30.0)
           (-30.0 30.0)
  end
  begin
     id 15 
     name upperneck
     direction -0.0376619 0.998184 -0.0470083   
     length 1.60926   
     axis 0 0 0   XYZ
    dof rx ry rz
    limits (-20.0 45.0)
           (-30.0 30.0)
           (-30.0 30.0)
  end
  begin
     id 16
     name head
     direction -0.0170133 0.999635 -0.0209778  
     length 1.73625  
     axis 0 0 0   XYZ
    dof rx ry rz
    limits (-20.0 45.0)
           (-30.0 30.0)
           (-30.0 30.0)
  end
  begin
     id 17 
     name lclavicle
     direction 0.919857 0.39181 -0.0186333  
     length 3.75313  
     axis 0 0 0   XYZ
    dof ry rz
    limits (-20.0 10.0)
           (0.0 20.0)
  end
  begin
     id 18 
     name lhumerus
     direction 1 -4.48988e-011 1.44029e-027   
     length 5.49313   
     axis 180 -30 -90   XYZ
    dof rx ry rz
    limits (-60.0 90.0)
           (-90.0 90.0)
           (-90.0 90.0)
  end
  begin
     id 19
     name lradius
     direction 1 -4.48924e-011 7.46281e-027   
     length 3.29037   
     axis 180 -30 -90   XYZ
    dof rx
    limits (-10.0 170.0)
  end
  begin
     id 20
     name lwrist
     direction 1 -4.48955e-011 2.19879e-026   
     length 1.64519   
     axis -1.34358e-014 90 90   XYZ
    dof ry
    limits (-180.0 0.0)
 end
  begin
     id 21 
     name lhand
     direction 1 -4.48978e-011 4.39747e-026   
     length 0.729656   
     axis -2.80598e-014 90 90   XYZ
    dof rx rz
    limits (-90.0 90.0)
           (-45.0 45.0)
  end
  begin
     id 22 
     name lfingers
     direction 1 -4.49071e-011 8.79411e-026   
     length 0.588268   
     axis -5.61193e-014 90 90   XYZ
    dof rx
    limits (0.0 90.0)
  end
  begin
     id 23
     name lthumb
     direction 0.707107 -6.34817e-011 0.707107   
     length 0.844638   
     axis -90 45 -9.86923e-015   XYZ
    dof rx rz
    limits (-45.0 45.0)
           (-45.0 45.0)
  end
  begin
     id 24 
     name rclavicle
     direction -0.919898 0.388279 0.0550233   
     length 3.7171  
     axis 0 0 0   XYZ 
    dof ry rz
    limits (-10.0 20.0)
           (-20.0 0.0)
  end
  begin
     id 25 
     name rhumerus
     direction -1 -4.48968e-011 9.98372e-028  
     length 5.23684   
     axis 180 30 90   XYZ
    dof rx ry rz
    limits (-90.0 60.0)
           (-90.0 90.0)
           (-90.0 90.0)
  end
  begin
     id 26 
     name rradius
     direction -1 -4.48956e-011 1.01023e-026   
     length 3.38251   
     axis 180 30 90   XYZ
    dof rx
    limits (-10.0 170.0)
  end
  begin
     id 27 
     name rwrist
     direction -1 -4.4892e-011 2.19886e-026   
     length 1.69126   
     axis -1.34358e-014 -90 -90   XYZ
    dof ry
    limits (-180.0 0.0)
  end
  begin
     id 28
     name rhand
     direction -1 -4.49024e-011 4.39727e-026   
     length 0.691454   
     axis -2.80598e-014 -90 -90   XYZ
    dof rx rz
    limits (-90.0 90.0)
           (-45.0 45.0)
  end
  begin
     id 29
     name rfingers
     direction -1 -4.49097e-011 8.79388e-026   
     length 0.557468   
     axis -5.61193e-014 -90 -90   XYZ
    dof rx
    limits (0.0 90.0)
  end
  begin
     id 30
     name rthumb
     direction -0.707107 -6.34938e-011 0.707107   
     length 0.800416   
     axis -90 -45 9.86923e-015   XYZ
    dof rx rz
    limits (-45.0 45.0)
           (-45.0 45.0)
  end
:hierarchy
  begin
    root lhipjoint rhipjoint lowerback
    lhipjoint lfemur
    lfemur ltibia
    ltibia lfoot
    lfoot ltoes
    rhipjoint rfemur
    rfemur rtibia
    rtibia rfoot
    rfoot rtoes
    lowerback upperback
    upperback thorax
    thorax lowerneck lclavicle rclavicle
    lowerneck upperneck
    upperneck head
    lclavicle lhumerus
    lhumerus lradius
    lradius lwrist
    lwrist lhand lthumb
    lhand lfingers
    rclavicle rhumerus
    rhumerus rradius
    rradius rwrist
    rwrist rhand rthumb
    rhand rfingers
  end

#!OML:ASF H:\BabyWalks\Project 1\Capture day 1\Session 1\baby.ASF
:FULLY-SPECIFIED
:DEGREES
122
root -36.4358 17.34 -4.53136 -6.79126 80.3021 -15.2702
lowerback 16.2128 0.961507 -5.161
upperback 6.90524 0.829476 -0.591826
thorax -1.77578 0.477074 2.14543
lowerneck -6.01999 2.59086 -2.5762
upperneck -6.66998 3.77046 0.518387
head -1.11854 2.01028 0.60834
rclavicle 9.14409e-015 -1.90833e-014
rhumerus -38.1005 26.2516 -87.2946
rradius 54.4838
rwrist -7.14556
rhand -8.47179 -15.7167
rfingers 7.12502
rthumb 17.4548 -44.953
lclavicle 9.14409e-015 -1.90833e-014
lhumerus -44.0052 4.83762 75.8185
lradius 42.9563
lwrist -2.29837
lhand -0.0973789 11.3721
lfingers 7.12502
lthumb 25.4971 39.6862
rfemur 6.62064 13.6837 22.4954
rtibia 9.82901
rfoot -21.9124 -7.09452
rtoes -17.6861
lfemur -27.8805 -4.07792 -14.9726
ltibia 40.9017
lfoot -23.0351 -18.42
ltoes 18.7787
123
root -36.3554 17.3435 -4.52322 -5.30386 80.307 -13.833
lowerback 16.2612 1.09172 -5.68194
upperback 6.78049 0.902583 -0.917187
thorax -1.93578 0.514505 2.08178
lowerneck -6.14119 2.44628 -2.78827
upperneck -6.55978 3.61429 1.11785
head -1.07892 1.93183 0.831907
rclavicle 0 1.11319e-014
rhumerus -38.4016 26.3514 -87.809
rradius 53.5314
rwrist -7.32003
rhand -8.49519 -15.7651
rfingers 7.12502
rthumb 17.4323 -45.0034
lclavicle 0 1.11319e-014
lhumerus -43.7583 5.07347 75.1047
lradius 42.8187
lwrist -2.14675
lhand -0.0420211 11.357
lfingers 7.12502
lthumb 25.5501 39.6636
rfemur 6.7078 13.6263 22.2257
rtibia 10.0799
rfoot -21.8834 -7.06275
rtoes -18.5347
lfemur -27.4945 -3.59455 -15.3118
ltibia 40.6127
lfoot -23.1524 -18.7342
ltoes 18.8538
124
root -36.2741 17.3481 -4.51465 -3.91986 80.2861 -12.4658
lowerback 16.3716 1.22029 -6.14425
upperback 6.62975 0.973344 -1.28538
thorax -2.15531 0.555323 1.93813
lowerneck -6.1748 2.30219 -2.92327
upperneck -6.4705 3.451 1.70928
head -1.057 1.84839 1.04039
rclavicle -7.15625e-015 1.90833e-014
rhumerus -38.7571 26.3657 -88.4123
rradius 52.5727
rwrist -7.2495
rhand -8.43886 -15.8182
rfingers 7.12502
rthumb 17.4865 -45.0517
lclavicle -7.15625e-015 1.90833e-014
lhumerus -43.5255 5.16098 74.3728
lradius 42.72
lwrist -1.98149
lhand 0.0302667 11.3356
lfingers 7.12502
lthumb 25.6194 39.6322
rfemur 6.75077 13.3701 21.9479
rtibia 10.4762
rfoot -21.9319 -6.77783
rtoes -19.1525
lfemur -27.0545 -3.07976 -15.6379
ltibia 40.3134
lfoot -23.2692 -19.0642
ltoes 18.9527
125
root -36.1923 17.3533 -4.50626 -2.6951 80.2524 -11.2356
lowerback 16.4057 1.36415 -6.66961
upperback 6.54861 1.06779 -1.57181
thorax -2.26388 0.603884 1.91239
lowerneck -6.19257 2.15466 -3.09774
upperneck -6.45977 3.28382 2.21501
head -1.05997 1.7659 1.22955
rclavicle 2.0276e-014 -1.59028e-015
rhumerus -39.0054 26.4107 -88.8545
rradius 51.6297
rwrist -6.9964
rhand -8.32119 -15.8653
rfingers 7.12502
rthumb 17.5998 -45.0887
lclavicle 2.0276e-014 -1.59028e-015
lhumerus -43.1741 5.26244 73.8008
lradius 42.6313
lwrist -1.86386
lhand 0.105218 11.3017
lfingers 7.12502
lthumb 25.6911 39.5879
rfemur 6.73487 12.9807 21.665
rtibia 11.016
rfoot -22.0232 -6.3018
rtoes -19.5713
lfemur -26.5833 -2.56853 -15.9399
ltibia 40.0181
lfoot -23.3764 -19.3959
ltoes 19.1291
126
root -36.11 17.3576 -4.49854 -1.68596 80.2228 -10.2024
lowerback 16.4522 1.48603 -7.15203
upperback 6.48185 1.14035 -1.84285
thorax -2.36227 0.642579 1.88168
lowerneck -6.21088 2.01923 -3.26908
upperneck -6.46489 3.13185 2.67909
head -1.06628 1.69163 1.40647
rclavicle 1.82882e-014 -1.82882e-014
rhumerus -39.2236 26.4612 -89.2731
rradius 50.703
rwrist -6.55757
rhand -8.15225 -15.9027
rfingers 7.12502
rthumb 17.7623 -45.1115
lclavicle 1.82882e-014 -1.82882e-014
lhumerus -42.7913 5.33308 73.2821
lradius 42.5735
lwrist -1.78279
lhand 0.188145 11.2458
lfingers 7.12502
lthumb 25.7706 39.5206
rfemur 6.67515 12.5239 21.4028
rtibia 11.7054
rfoot -22.1387 -5.74273
rtoes -19.9614
lfemur -26.0951 -2.0977 -16.2075
ltibia 39.7389
lfoot -23.4733 -19.7138
ltoes 19.3984
127
root -36.0275 17.3619 -4.49253 -0.919099 80.186 -9.41504
lowerback 16.4954 1.58788 -7.56948
upperback 6.4234 1.19736 -2.09727
thorax -2.44888 0.674311 1.83421
lowerneck -6.23017 1.89728 -3.43267
upperneck -6.48456 2.99645 3.09482
head -1.07556 1.62609 1.56792
rclavicle 1.43125e-014 -1.11319e-014
rhumerus -39.4185 26.5152 -89.6599
rradius 49.8084
rwrist -5.96861
rhand -7.93424 -15.9218
rfingers 7.12502
rthumb 17.9721 -45.1115
lclavicle 1.43125e-014 -1.11319e-014
lhumerus -42.3759 5.36791 72.824
lradius 42.5444
lwrist -1.75165
lhand 0.265345 11.1625
lfingers 7.12502
lthumb 25.8445 39.4265
rfemur 6.53213 11.9771 21.1456
rtibia 12.5413
rfoot -22.2572 -5.0258
rtoes -20.2694
lfemur -25.6195 -1.68408 -16.4318
ltibia 39.4836
lfoot -23.6028 -19.9792
ltoes 19.651
128
root -35.945 17.3659 -4.48845 -0.429935 80.1564 -8.91993
lowerback 16.5316 1.66431 -7.90633
upperback 6.36942 1.23418 -2.33252
thorax -2.52539 0.696673 1.76518
lowerneck -6.25703 1.78916 -3.57886
upperneck -6.51052 2.87721 3.45441
head -1.08407 1.56883 1.70944
rclavicle -7.95139e-016 -1.43125e-014
rhumerus -39.598 26.5722 -90.0117
rradius 48.9552
rwrist -5.26291
rhand -7.67952 -15.9166
rfingers 7.12502
rthumb 18.2172 -45.0836
lclavicle -7.95139e-016 -1.43125e-014
lhumerus -41.9347 5.36521 72.429
lradius 42.5494
lwrist -1.77138
lhand 0.323951 11.0597
lfingers 7.12502
lthumb 25.9006 39.3155
rfemur 6.29962 11.367 20.9033
rtibia 13.517
rfoot -22.3761 -4.17021
rtoes -20.4081
lfemur -25.1736 -1.35882 -16.6036
ltibia 39.2567
lfoot -23.7692 -20.1742
ltoes 19.864
129
root -35.8626 17.3706 -4.48634 -0.22082 80.1442 -8.72306
lowerback 16.5546 1.71643 -8.16129
upperback 6.32287 1.25379 -2.54342
thorax -2.58561 0.710593 1.67931
lowerneck -6.2889 1.69428 -3.70031
upperneck -6.54757 2.77265 3.74945
head -1.09367 1.51897 1.82653
rclavicle 5.56597e-015 -7.95139e-015
rhumerus -39.7667 26.6267 -90.3166
rradius 48.1578
rwrist -4.47382
rhand -7.39954 -15.8909
rfingers 7.12502
rthumb 18.4865 -45.0325
lclavicle 5.56597e-015 -7.95139e-015
lhumerus -41.4604 5.32275 72.1063
lradius 42.5841
lwrist -1.85616
lhand 0.35677 10.9379
lfingers 7.12502
lthumb 25.9321 39.1891
rfemur 5.96657 10.7645 20.6901
rtibia 14.6502
rfoot -22.4727 -3.23936
rtoes -20.4868
lfemur -24.7585 -1.14077 -16.7215
ltibia 39.0498
lfoot -23.9806 -20.298
ltoes 20.0761
130
root -35.7802 17.3763 -4.48615 -0.276208 80.1648 -8.81248
lowerback 16.5653 1.74291 -8.33503
upperback 6.28236 1.25434 -2.7277
thorax -2.63136 0.714989 1.58001
lowerneck -6.32164 1.61002 -3.78994
upperneck -6.59551 2.6786 3.97802
head -1.10491 1.47416 1.91681
rclavicle -1.19271e-014 -1.27222e-014
rhumerus -39.9329 26.6766 -90.5714
rradius 47.4249
rwrist -3.64643
rhand -7.10309 -15.8538
rfingers 7.12502
rthumb 18.7717 -44.9681
lclavicle -1.19271e-014 -1.27222e-014
lhumerus -40.9533 5.23906 71.8597
lradius 42.6501
lwrist -1.99778
lhand 0.35576 10.8124
lfingers 7.12502
lthumb 25.9311 39.0637
rfemur 5.52637 10.1719 20.5041
rtibia 15.9383
rfoot -22.5209 -2.23931
rtoes -20.5777
lfemur -24.378 -1.04712 -16.7882
ltibia 38.8544
lfoot -24.2313 -20.3464
ltoes 20.2492
131
root -35.6974 17.3833 -4.4876 -0.59362 80.2089 -9.17744
lowerback 16.567 1.75116 -8.43655
upperback 6.25036 1.2443 -2.88293
thorax -2.6626 0.713755 1.47346
lowerneck -6.35015 1.53561 -3.84676
upperneck -6.6581 2.59398 4.14247
head -1.12004 1.43373 1.9805
rclavicle -1.66979e-014 -9.54166e-015
rhumerus -40.1045 26.7195 -90.7711
rradius 46.7728
rwrist -2.83328
rhand -6.79711 -15.8169
rfingers 7.12502
rthumb 19.0659 -44.9024
lclavicle -1.66979e-014 -9.54166e-015
lhumerus -40.4129 5.11679 71.6904
lradius 42.745
lwrist -2.17709
lhand 0.312738 10.6871
lfingers 7.12502
lthumb 25.8899 38.9445
rfemur 4.9874 9.61803 20.3487
rtibia 17.3761
rfoot -22.508 -1.17831
rtoes -20.6807
lfemur -24.0138 -1.06702 -16.8053
ltibia 38.66
lfoot -24.5113 -20.3289
ltoes 20.4147
132
root -35.6141 17.392 -4.49034 -1.14161 80.2841 -9.78182
lowerback 16.566 1.74201 -8.47752
upperback 6.22656 1.22236 -3.00894
thorax -2.68309 0.706228 1.36655
lowerneck -6.3741 1.47025 -3.86666
upperneck -6.73082 2.51729 4.24557
head -1.13776 1.39674 2.01754
rclavicle -2.78299e-014 3.18055e-015
rhumerus -40.2871 26.7544 -90.9185
rradius 46.2034
rwrist -2.07332
rhand -6.50156 -15.7835
rfingers 7.12502
rthumb 19.3501 -44.8408
lclavicle -2.78299e-014 3.18055e-015
lhumerus -39.8422 4.96204 71.5947
lradius 42.8685
lwrist -2.38232
lhand 0.234754 10.5575
lfingers 7.12502
lthumb 25.8152 38.8257
rfemur 4.35876 9.10315 20.2192
rtibia 18.9487
rfoot -22.418 -0.0578591
rtoes -20.7668
lfemur -23.6591 -1.19828 -16.7814
ltibia 38.4594
lfoot -24.7924 -20.253
ltoes 20.576
